<svg xmlns="http://www.w3.org/2000/svg" data-name="Layer 1" viewBox="0 0 799 667.07575">
  <path fill="#cb313e" d="M649 630.15775H164l.21874-51.42174c.55348-130.11522 104.40844-237.32948 234.506-239.54236q2.10824-.03587 4.22346-.0359h.0004a245.33553 245.33553 0 0185.75247 15.40589c92.054 34.28252 153.84089 121.38358 157.951 219.52807z"/>
  <path fill="#2f2e41" d="M0 630.15774h799v2H0zM398.287 400.165l21.37 15.543 21.371 182.622h50.512l-17.485-207.879-69.94-27.199-5.828 36.913z"/>
  <path fill="#2f2e41" d="M308.9184 341.88172s-5.82836 66.05475 17.48508 67.99754 112.68163-19.42787 112.68163-19.42787l42.74131 151.53736 64.112-33.02737s-38.85573-170.96523-62.16917-180.67916-101.02491-29.1418-101.02491-29.1418l-56.34082 9.71393zM448.79905 594.44399s-11.65673 44.68409-3.88558 48.56967a140.53483 140.53483 0 0113.59951 7.77114v-7.77114s9.71393 9.71393 9.71393 17.48508 52.45524 9.71393 52.45524 0-1.94278-21.37066-11.65672-27.199-21.37065-38.85573-21.37065-38.85573z"/>
  <path fill="#2f2e41" d="M505.14 514.79l3.885 36.913 13.6 23.313 33.027-36.913-25.256-40.798-25.256 17.485z"/>
  <path fill="#2f2e41" d="M536.22445 551.70268s7.15372-24.46025 14.26219-21.94406 34.30747 27.77242 34.30747 27.77242l19.42789 11.65672s38.85573 3.88558 27.199 15.5423-54.398 27.199-73.82589 19.42786-23.31344-9.71393-23.31344-9.71393l-5.82836 3.88557-23.31344-5.82836 3.88557-40.79852s5.82835 17.48508 27.19901 0z"/>
  <circle cx="374.97315" cy="54.34929" r="44.68409" fill="#9f616a"/>
  <path fill="#9f616a" d="M346.80274 80.57688s3.88558 40.79852-7.77114 40.79852 1.94278 50.51248 33.0274 50.51248 42.74131-60.22639 42.74131-60.22639-21.37066-7.77115-17.48508-33.02737-50.51249 1.94276-50.51249 1.94276z"/>
  <path fill="#3f3d56" d="M343.70687 118.26327l-16.332 6.99774-44.32477 18.75279a8.99955 8.99955 0 00-5.43656 9.29441l16.734 148.74639s-17.48508 36.91294 9.71394 38.85573l3.88552 13.59955 31.08459-36.913 116.5672-3.88557 1.94279-188.45031-53.3357-21.07612s-7.25407 40.108-60.49901 14.07839z"/>
  <path fill="#3f3d56" d="M289.49054 149.54588l-7.17945-2.05127a5.919 5.919 0 00-7.47123 4.7594L255.788 271.76135a41.5016 41.5016 0 004.05469 25.91676c5.8867 11.14588 18.11259 21.25444 43.24739 9.23345l17.48508-126.28113zM435.19954 122.34688l23.31344 3.88557 64.112 89.36819 5.82832 15.54224 36.913-11.65672s-1.94279 17.48508 17.48508 15.5423c0 0-23.31344 64.112-71.88311 44.68409s-64.112-77.71147-64.112-77.71147z"/>
  <path fill="#ccc" d="M462.399 161.203l-87.426-34.971-3.885 11.657 40.798 34.97 50.513-11.656z"/>
  <path fill="#2f2e41" d="M348.06969 57.19788c1.65033-.44064 1.89277-2.63175 1.94808-4.339.29622-9.14249 5.80151-18.52371 14.553-21.18523a24.46655 24.46655 0 0110.313-.5675 39.06274 39.06274 0 0113.96661 4.65951c2.27932 1.28145 4.51509 2.82482 7.10047 3.21626 1.70747.25852 9.10059 2.40806 10.80081 2.71057 3.7381.66508 7.2121 4.00959 10.79913 2.765 3.43173-1.19068 4.19139-5.634 4.27434-9.26547.189-8.27324-6.09157-19.72372-11.62353-25.87838-4.198-4.67054-10.519-6.82653-16.698-7.9476A111.168 111.168 0 00371.66573.03755c-9.88858.17636-20.05125.93961-28.968 5.21828s-16.40657 12.79425-16.834 22.67516c-.089 2.05828.1233 4.12515-.04976 6.17808-.42218 5.00809-3.08153 9.5316-4.329 14.40017a26.35017 26.35017 0 003.67977 21.05747c3.30926 4.87005 16.54275 9.29112 16.35142 15.176 2.39183-2.478-3.24866-4.97242-.85683-7.45041a5.89248 5.89248 0 001.75244-7.19911l-2.53985-9.90672c-.46505-1.814-.92235-3.77752-.21992-5.51327 2.72285-6.72807 5.66607 3.25937 8.41769 2.52468z"/>
  <path fill="#f2f2f2" d="M371.088 137.889l-36.913 143.766 143.766 50.513 83.54-69.941 52.455-157.365-85.483 62.169-157.365-29.142z"/>
  <path fill="#e6e6e6" d="M377.6395522 155.34191573l.49562707-1.87816524 139.88064076 36.9129572-.49562708 1.87816524zM373.75398408 165.05584852l.49562708-1.87816524 139.88064076 36.9129572-.49562708 1.87816524zM371.81119503 174.76978411l.49562708-1.87816523 139.88064076 36.9129572-.49562708 1.87816523zM369.86840854 184.48371004l.49562707-1.87816524 139.88064076 36.9129572-.49562708 1.87816524zM367.92562915 194.19764818l.49562708-1.87816523 139.88064076 36.9129572-.49562708 1.87816523zM365.9828401 203.91158378l.49562708-1.87816524 139.88064076 36.9129572-.49562708 1.87816524zM364.0400436 213.6255097l.49562708-1.87816523 139.88064076 36.9129572-.49562708 1.87816523zM362.09726422 223.33944785l.49562708-1.87816524 139.88064076 36.9129572-.49562708 1.87816524zM360.15447517 233.05338344l.49562708-1.87816523 139.88064076 36.9129572-.49562708 1.87816524z"/>
  <path fill="#9f616a" d="M311.85043 243.64214s43.69485-26.09876 63.12272-8.61368-56.34081 42.7413-56.34081 42.7413z"/>
  <path fill="#3f3d56" d="M264.23431 256.39911l56.34081-21.37065s-9.71393 36.91294 9.71394 38.85573L303.09 306.91156s-54.398 0-38.85569-50.51245z"/>
  <path fill="#e6e6e6" d="M412.494 255.602l74.761 25.197-17.693 38.566-74.761-25.196 17.693-38.567z"/>
  <path fill="#ccc" d="M544.967 173.831l56.341-42.742-15.542 52.456-58.284 42.741 17.485-52.455z"/>
  <path fill="#e6e6e6" d="M517.1802039 244.93893865l56.34195779-42.73979452 1.1744023 1.54816197-56.34195779 42.73979452zM513.29461865 266.30959432l56.34195778-42.73979452 1.1744023 1.54816197-56.34195778 42.73979452z"/>
  <path fill="#9f616a" d="M577.023 236.97124s48.56966-29.1418 17.48508-40.79852-31.08459 33.02738-31.08459 33.02738-1.94282 9.71393 13.59951 7.77114z"/>
  <path d="M292.405 171.888l-1.943 75.769 30.113-8.594-24.285.822-3.885-67.997z" opacity=".1"/>
  <path fill="#8985a8" d="M80.40863 595.89221c6.07317 22.45006 26.87512 36.35395 26.87512 36.35395s10.95541-22.49485 4.88225-44.94491-26.87512-36.354-26.87512-36.354-10.95541 22.4949-4.88225 44.94496z"/>
  <path fill="#3f3d56" d="M89.33272 591.06745c16.66484 16.22256 18.70033 41.1604 18.70033 41.1604s-24.98356-1.36411-41.64841-17.58667-18.70033-41.1604-18.70033-41.1604 24.98356 1.3641 41.64841 17.58667z"/>
  <path fill="#f2f2f2" d="M626 379.15774h30v30h-30zM506 39.15774h30v30h-30z"/>
  <circle cx="159" cy="328.15774" r="15" fill="#f2f2f2"/>
</svg>